<svg aria-hidden="true" style="position: absolute; width: 0; height: 0; overflow: hidden;" version="1.1" xmlns="http://www.w3.org/2000/svg" xmlns:xlink="http://www.w3.org/1999/xlink">
<defs>
<symbol id="icon-logo-quiz-black" viewBox="0 0 50 32">
<path d="M28.155 2.148c-0.809 0.231-1.265 0.906-1.265 1.868v0.304h-5.183l-0.45 0.438-0.45 0.432v10.36l0.444 0.438 0.438 0.438h5.195l0.018 5.457 0.018 5.463 0.134 0.286c0.128 0.28 0.572 0.779 0.687 0.779 0.037 0 0.061 0.049 0.061 0.11 0 0.097 0.097 0.103 1.247 0.103 0.791 0 1.247-0.024 1.247-0.061s0.11-0.122 0.243-0.201c0.134-0.079 0.329-0.249 0.426-0.389 0.377-0.517 0.365-0.347 0.365-6.205v-5.341h2.561c1.807 0 2.598-0.018 2.689-0.067 0.073-0.043 0.286-0.237 0.481-0.444l0.353-0.371v-10.354l-0.45-0.432-0.45-0.438h-5.183v-0.353c0-0.779-0.335-1.375-0.937-1.685-0.335-0.17-0.402-0.183-1.156-0.195-0.523-0.012-0.894 0.012-1.083 0.061z"></path>
<path d="M5.84 17.369c-1.782 0.353-3.109 1.697-3.602 3.656-0.128 0.487-0.14 0.687-0.14 2.002 0 1.691 0.073 2.123 0.541 3.097 0.493 1.034 1.132 1.703 2.075 2.166 0.724 0.359 1.089 0.438 2.099 0.462l0.882 0.024 1.138 0.906c0.621 0.505 1.162 0.925 1.192 0.931 0.030 0.012 0.402-0.274 0.827-0.633l0.773-0.651-0.9-0.712c-0.499-0.395-0.906-0.718-0.913-0.718-0.006-0.006 0.201-0.231 0.462-0.499 1.059-1.095 1.539-2.689 1.442-4.8-0.043-0.986-0.134-1.503-0.395-2.214-0.487-1.332-1.387-2.281-2.622-2.786-0.773-0.31-1.977-0.408-2.859-0.231zM7.313 19.291c0.42 0.085 0.754 0.286 1.077 0.633 0.511 0.56 0.736 1.345 0.779 2.768 0.079 2.415-0.487 3.729-1.758 4.052-1.296 0.335-2.342-0.456-2.701-2.044-0.146-0.645-0.152-2.701-0.006-3.34 0.195-0.858 0.657-1.606 1.168-1.88 0.207-0.11 0.712-0.243 0.955-0.249 0.091-0.006 0.31 0.024 0.487 0.061z"></path>
<path d="M13.202 21.396c0 3.285 0.018 4.082 0.091 4.429 0.225 1.065 0.955 2.002 1.929 2.464 0.779 0.377 1.509 0.505 2.573 0.468 0.943-0.037 1.478-0.158 2.16-0.487 0.572-0.274 1.253-0.967 1.539-1.564 0.402-0.827 0.408-0.931 0.408-5.354v-3.954h-2.488l-0.018 4.027c-0.018 3.839-0.024 4.052-0.14 4.368-0.268 0.742-0.864 1.071-1.849 1.022-0.663-0.030-1.040-0.207-1.332-0.608-0.365-0.511-0.377-0.663-0.377-4.964v-3.845h-2.494v3.997z"></path>
<path d="M35.875 17.442c-0.024 0.018-0.043 0.456-0.043 0.973v0.931h2.744c2.312 0 2.738 0.012 2.713 0.085-0.018 0.043-1.241 1.819-2.713 3.948l-2.683 3.863v1.411l8.608-0.030 0.018-0.955 0.018-0.961-2.768-0.012-2.762-0.018 2.701-3.942 2.701-3.936v-1.399h-4.246c-2.336 0-4.271 0.018-4.289 0.043z"></path>
</symbol>
<symbol id="icon-logo-quiz" viewBox="0 0 50 32">
<path d="M28 2.175c-0.683 0.275-1.075 0.883-1.083 1.675v0.483h-5.25l-0.917 0.9v5.158l0.008 5.158 0.458 0.458 0.458 0.45h5.233l0.025 5.55 0.025 5.542 0.2 0.3c0.117 0.158 0.308 0.358 0.433 0.45 0.125 0.083 0.225 0.192 0.217 0.242s0.417 0.092 1.208 0.108l1.225 0.025 0.45-0.442c0.308-0.3 0.483-0.55 0.55-0.775 0.058-0.225 0.092-2.025 0.092-5.667v-5.333l2.433 0.017c1.342 0.017 2.525 0 2.617-0.025 0.1-0.025 0.375-0.233 0.608-0.467l0.425-0.417v-10.367l-0.883-0.867h-5.175l-0.042-0.525c-0.067-0.808-0.458-1.375-1.092-1.617-0.325-0.117-1.933-0.133-2.225-0.017zM28.375 2.333c-0.033 0.058 0.017 0.075 0.142 0.050 0.1-0.025 0.417-0.058 0.692-0.083 0.375-0.042 0.467-0.025 0.375 0.042-0.1 0.067-0.075 0.075 0.1 0.042 0.475-0.108 1.475 0.592 1.225 0.842-0.067 0.067-0.058 0.108 0.017 0.15 0.067 0.050 0.083 0.033 0.033-0.042-0.042-0.075-0.033-0.092 0.025-0.050 0.058 0.033 0.1 0.267 0.1 0.542 0 0.525 0.092 0.675 0.433 0.7 0.108 0 0.217 0.050 0.25 0.1 0.042 0.050 0.067 0.050 0.067 0s0.817-0.083 2.283-0.083h2.283l0.242 0.208c0.292 0.267 0.358 0.35 0.308 0.433-0.025 0.033 0.017 0.042 0.083 0.017 0.117-0.042 0.133 0.508 0.15 5.083 0.025 4.358 0.008 5.125-0.092 5.092-0.092-0.033-0.1-0.025-0.008 0.083 0.083 0.1 0.083 0.125-0.033 0.125-0.075 0-0.133 0.025-0.133 0.058 0 0.042-0.1 0.183-0.233 0.333l-0.225 0.267-2.583 0.008c-1.642 0-2.608 0.033-2.667 0.092-0.050 0.050-0.1 2-0.125 5.625-0.025 3.55-0.075 5.558-0.125 5.6-0.042 0.033-0.142 0.167-0.208 0.308-0.208 0.4-0.508 0.492-1.542 0.5-0.5 0-0.967 0.033-1.025 0.075-0.075 0.042-0.167 0.008-0.275-0.108-0.092-0.1-0.2-0.175-0.25-0.175s-0.058-0.042-0.033-0.083c0.025-0.050 0.008-0.083-0.042-0.083s-0.125-0.092-0.183-0.208c-0.050-0.108-0.125-0.183-0.167-0.15-0.050 0.025-0.042-0.042 0.017-0.142 0.067-0.125 0.067-0.167 0.008-0.133-0.058 0.042-0.092-0.017-0.092-0.133 0-0.108 0-2.558 0-5.45 0-5.042 0-5.258-0.15-5.4-0.142-0.125-0.417-0.133-2.608-0.133-1.35 0-2.5 0-2.558 0s-0.083-0.042-0.050-0.092c0.033-0.067 0.075-0.058 0.125 0.017 0.042 0.067 0.075 0.075 0.075 0.025 0-0.15-0.1-0.2-0.25-0.117-0.108 0.058-0.183 0.017-0.333-0.183-0.108-0.15-0.192-0.308-0.192-0.367s-0.042-0.083-0.092-0.067c-0.067 0.025-0.092-1.458-0.092-5.125 0-4.483 0.017-5.15 0.117-5.067 0.092 0.075 0.108 0.075 0.067 0-0.033-0.050-0.025-0.117 0.025-0.15s0.058-0.092 0.033-0.142c-0.033-0.050-0.017-0.067 0.033-0.042 0.042 0.033 0.175-0.050 0.292-0.183 0.117-0.142 0.225-0.233 0.25-0.208s1.092 0.042 2.375 0.033c2.15 0 2.833-0.058 2.858-0.233 0.033-0.283 0.067-0.417 0.117-0.55 0.050-0.117 0.042-0.142-0.033-0.092-0.125 0.075-0.075-0.15 0.117-0.583 0.108-0.233 0.542-0.692 0.542-0.567 0 0.033 0.050 0 0.108-0.075 0.050-0.075 0.175-0.15 0.267-0.175s0.175-0.042 0.192-0.050c0.017 0 0 0.033-0.025 0.075z"></path>
<path d="M30.758 16.383c0 0.092 0.025 0.117 0.050 0.050 0.025-0.058 0.017-0.133-0.008-0.158-0.025-0.033-0.050 0.017-0.042 0.108z"></path>
<path d="M28 18.492v0.667l0.458 0.3c0.258 0.158 0.558 0.292 0.675 0.292 0.167 0 0.658-0.267 1.025-0.55 0.025-0.017 0.042-1.1 0.017-1.317-0.008-0.042-0.092 0-0.192 0.092-0.108 0.092-0.35 0.267-0.533 0.392l-0.35 0.225-0.55-0.383-0.55-0.392v0.675zM28.967 18.675c0.15 0.075 0.233 0.050 0.533-0.167 0.2-0.142 0.383-0.258 0.417-0.258s0.083 0.158 0.108 0.35c0.042 0.317 0.025 0.383-0.175 0.575-0.508 0.483-0.725 0.508-1.283 0.15-0.4-0.258-0.4-0.258-0.4-0.708v-0.45l0.317 0.208c0.167 0.117 0.392 0.25 0.483 0.3z"></path>
<path d="M28 21.817v0.658l0.467 0.308c0.525 0.342 0.75 0.367 1.042 0.142 0.108-0.083 0.308-0.208 0.442-0.275 0.233-0.125 0.242-0.142 0.25-0.808 0.008-0.367 0-0.675-0.017-0.675s-0.2 0.133-0.408 0.292c-0.575 0.442-0.683 0.442-1.267 0.050l-0.508-0.35v0.658zM28.875 21.925l0.267 0.158 0.342-0.25c0.192-0.133 0.383-0.25 0.425-0.25 0.075 0 0.183 0.667 0.125 0.767-0.025 0.033-0.208 0.183-0.417 0.325-0.425 0.292-0.558 0.283-1.092-0.067-0.35-0.225-0.358-0.242-0.358-0.675v-0.45l0.225 0.142c0.117 0.083 0.342 0.217 0.483 0.3z"></path>
<path d="M28 25.142v0.65l0.483 0.308c0.267 0.175 0.558 0.317 0.642 0.317 0.158 0 1.042-0.55 1.042-0.65 0.025-0.467 0.033-1.267 0.017-1.267s-0.275 0.175-0.575 0.383c-0.3 0.208-0.567 0.35-0.6 0.308-0.058-0.083-0.908-0.692-0.967-0.692-0.025 0-0.042 0.292-0.042 0.642zM28.75 25.175c0.025 0.025 0.125 0.092 0.225 0.142 0.142 0.075 0.208 0.075 0.292-0.008 0.058-0.058 0.167-0.133 0.233-0.167s0.208-0.117 0.317-0.192c0.183-0.133 0.183-0.133 0.183 0.158 0 0.158 0.025 0.35 0.050 0.425 0.033 0.083-0.1 0.217-0.417 0.433-0.433 0.283-0.475 0.3-0.725 0.2-0.142-0.067-0.375-0.2-0.5-0.317-0.208-0.167-0.242-0.258-0.242-0.608v-0.417l0.275 0.15c0.142 0.083 0.283 0.175 0.308 0.2z"></path>
<path d="M30.417 28.083c-0.075 0.050-0.083 0.083-0.025 0.083 0.050 0 0.125-0.042 0.15-0.083 0.067-0.1 0.033-0.1-0.125 0z"></path>
<path d="M5.8 17.383c-1.717 0.383-3.033 1.675-3.508 3.45-0.35 1.283-0.308 3.467 0.092 4.658 0.533 1.592 1.7 2.733 3.2 3.133 0.25 0.067 0.825 0.125 1.275 0.125h0.825l1.158 0.933c0.642 0.517 1.183 0.942 1.2 0.942 0.058 0 1.533-1.242 1.533-1.292 0.008-0.025-0.392-0.358-0.883-0.75l-0.9-0.7 0.458-0.467c0.55-0.558 1.025-1.417 1.267-2.308 0.258-0.95 0.258-3.192 0-4.133-0.617-2.242-2.192-3.575-4.367-3.683-0.525-0.025-0.958 0-1.35 0.092zM7.942 17.608c0.125 0 0.225 0.033 0.225 0.075 0 0.033 0.058 0.033 0.142 0.008 0.092-0.033 0.117-0.025 0.075 0.042-0.033 0.067 0 0.1 0.092 0.1s0.208 0.050 0.267 0.1c0.092 0.092 0.1 0.083 0.042-0.017-0.033-0.067 0.042-0.042 0.167 0.067 0.133 0.1 0.275 0.183 0.317 0.183s0.133 0.058 0.208 0.125c0.067 0.067 0.158 0.108 0.2 0.075 0.042-0.025 0.067-0.017 0.058 0.025-0.017 0.042 0.167 0.258 0.392 0.492 0.342 0.342 0.692 0.817 0.75 1.033 0.008 0.025 0.058 0.15 0.117 0.292 0.050 0.133 0.133 0.342 0.175 0.458 0.342 0.892 0.392 3.433 0.083 4.458-0.092 0.317-0.183 0.617-0.192 0.667-0.017 0.042-0.083 0.175-0.158 0.292s-0.2 0.35-0.283 0.517c-0.075 0.167-0.183 0.283-0.225 0.258-0.058-0.033-0.067 0.008-0.025 0.108 0.033 0.083 0.042 0.133 0.017 0.108s-0.225 0.117-0.442 0.317c-0.367 0.35-0.383 0.375-0.267 0.558 0.058 0.108 0.325 0.367 0.575 0.583 0.25 0.208 0.517 0.442 0.592 0.508s0.175 0.125 0.225 0.125c0.058 0 0.1 0.050 0.1 0.1-0.008 0.1-0.15 0.242-0.908 0.892-0.117 0.108-0.233 0.15-0.292 0.108-0.050-0.042-0.4-0.325-0.783-0.625-0.375-0.308-0.725-0.558-0.775-0.558s-0.067-0.033-0.042-0.067c0.017-0.033-0.117-0.167-0.308-0.283-0.317-0.2-0.442-0.225-1.267-0.242-1.042-0.025-1.308-0.058-1.242-0.167 0.025-0.042-0.008-0.050-0.067-0.033-0.067 0.025-0.392-0.1-0.733-0.275-0.642-0.325-1.2-0.8-1.467-1.258-0.083-0.142-0.183-0.258-0.217-0.258s-0.067-0.075-0.067-0.175c0-0.092-0.033-0.15-0.075-0.125s-0.1-0.008-0.125-0.083c-0.033-0.075-0.017-0.108 0.042-0.067 0.050 0.025 0.025-0.042-0.050-0.158s-0.15-0.267-0.158-0.325c-0.017-0.058-0.050-0.167-0.075-0.233-0.242-0.608-0.325-3.067-0.142-3.958 0.050-0.233 0.108-0.492 0.125-0.583s0.092-0.317 0.175-0.5c0.083-0.183 0.142-0.358 0.133-0.4-0.008-0.033 0.017-0.058 0.067-0.058 0.042 0 0.083-0.050 0.083-0.108s0.133-0.267 0.292-0.45c0.158-0.183 0.275-0.35 0.25-0.367-0.017-0.025 0.15-0.167 0.367-0.325 0.225-0.158 0.392-0.317 0.367-0.35-0.017-0.033 0.017-0.042 0.083-0.017s0.142-0.017 0.175-0.092c0.025-0.075 0.083-0.108 0.133-0.083 0.042 0.025 0.083 0.017 0.083-0.017 0-0.042 0.1-0.083 0.233-0.092 0.125-0.008 0.267-0.075 0.325-0.15 0.075-0.1 0.317-0.142 1.042-0.175 0.517-0.025 0.958-0.067 0.983-0.083 0.017-0.017 0.117-0.008 0.208 0.017 0.092 0.033 0.267 0.058 0.4 0.067z"></path>
<path d="M6.25 19.075c-0.367 0.075-0.667 0.233-0.667 0.358 0 0.050-0.025 0.067-0.050 0.042-0.083-0.083-0.7 0.65-0.758 0.892-0.008 0.050-0.1 0.317-0.2 0.592-0.325 0.9-0.283 3.592 0.067 4.375 0.033 0.067 0.058 0.158 0.067 0.208 0.008 0.125 0.317 0.575 0.433 0.65 0.067 0.042 0.092 0.1 0.067 0.15-0.033 0.042 0.008 0.075 0.083 0.075 0.067 0 0.15 0.058 0.183 0.125 0.075 0.208 0.675 0.475 1.142 0.508 0.442 0.042 1.217-0.1 1.217-0.217 0-0.033 0.067-0.058 0.15-0.050 0.075 0 0.133-0.042 0.125-0.092-0.017-0.058 0-0.1 0.042-0.092 0.117 0.025 0.35-0.117 0.3-0.192-0.025-0.042 0.017-0.075 0.092-0.075s0.117-0.033 0.092-0.075c-0.025-0.042 0.008-0.092 0.075-0.125 0.067-0.025 0.125-0.108 0.125-0.175 0-0.083 0.042-0.108 0.1-0.075s0.067 0.025 0.033-0.033c-0.033-0.050-0.008-0.2 0.058-0.325 0.35-0.683 0.517-2.933 0.3-3.942-0.042-0.208-0.092-0.467-0.108-0.583-0.067-0.375-0.292-0.808-0.575-1.117-0.158-0.167-0.267-0.317-0.242-0.333 0.017-0.025-0.067-0.092-0.2-0.15s-0.267-0.142-0.292-0.175c-0.125-0.175-1.083-0.258-1.658-0.15zM7.817 19.467c0.892 0.442 1.267 1.35 1.333 3.208 0.042 1.4-0.050 2.125-0.375 2.85-0.767 1.708-2.917 1.742-3.775 0.067-0.558-1.108-0.558-3.983 0.008-5.15 0.525-1.083 1.742-1.508 2.808-0.975z"></path>
<path d="M7.408 26.142c-0.108 0.133-0.1 0.142 0.033 0.033 0.075-0.058 0.142-0.125 0.142-0.142 0-0.067-0.067-0.025-0.175 0.108z"></path>
<path d="M13.167 21.308c0 4.158 0.042 4.608 0.417 5.367 0.708 1.4 2.017 2.075 4.025 2.075 0.8 0 1.083-0.033 1.617-0.208 1.092-0.342 1.783-0.9 2.233-1.8 0.425-0.825 0.458-1.208 0.458-5.433v-3.892h-2.492l-0.025 4.058c-0.025 3.7-0.042 4.1-0.175 4.4-0.333 0.733-0.858 1-1.842 0.942-1.025-0.067-1.458-0.458-1.633-1.483-0.058-0.358-0.083-1.792-0.067-4.233l0.025-3.683h-2.542v3.892zM15.425 21.267c0.008 1.983 0.008 3.633 0 3.667-0.033 0.233 0.192 0.95 0.417 1.308 0.2 0.325 0.383 0.492 0.683 0.65 0.225 0.108 0.467 0.183 0.533 0.158 0.075-0.033 0.183-0.008 0.242 0.042 0.075 0.058 0.217 0.075 0.392 0.033 0.142-0.033 0.367-0.075 0.5-0.092 0.608-0.083 1.042-0.517 1.3-1.3 0.167-0.5 0.175-0.708 0.175-4.275v-3.75l0.717-0.025c0.392-0.017 0.833-0.008 0.975 0.017l0.267 0.050-0.008 3.867c-0.008 2.125-0.042 4.033-0.075 4.233-0.033 0.192-0.192 0.608-0.358 0.908-0.367 0.675-0.883 1.083-1.85 1.467-0.658 0.258-0.692 0.267-1.967 0.25-0.958-0.017-1.308-0.042-1.358-0.125-0.033-0.058-0.1-0.1-0.142-0.092-0.042 0.017-0.217-0.042-0.4-0.117-0.175-0.075-0.35-0.142-0.392-0.142s-0.075-0.025-0.075-0.067c0-0.033-0.158-0.167-0.358-0.292-0.375-0.258-0.933-1.050-1.017-1.442-0.183-0.9-0.208-1.55-0.208-4.85v-3.683h2l0.008 3.6z"></path>
<path d="M35.85 18.383l0.025 0.958 2.733-0.008c1.5 0 2.725 0.017 2.725 0.042s-0.183 0.292-0.4 0.6c-0.467 0.658-0.542 0.767-3.125 4.5l-1.975 2.842v1.35h8.667v-2.008l-2.75 0.025c-1.517 0.017-2.75 0.017-2.75 0.008 0-0.017 2.133-3.142 3.375-4.942 0.233-0.342 0.792-1.158 1.233-1.8l0.808-1.183v-1.35h-8.592l0.025 0.967zM44.042 17.75c0.033 0.050 0.075 0.067 0.108 0.050 0.067-0.042 0.083 0.883 0.017 0.95-0.133 0.133-0.5 0.667-0.5 0.733 0 0.125-0.475 0.683-0.533 0.625-0.025-0.025-0.050 0.025-0.050 0.125s-0.033 0.183-0.083 0.183c-0.042 0-0.083 0.042-0.083 0.092 0 0.058-0.067 0.15-0.142 0.217-0.092 0.067-0.1 0.092-0.025 0.058 0.067-0.033 0 0.075-0.142 0.242-0.15 0.175-0.275 0.342-0.275 0.375 0 0.042-0.075 0.15-0.167 0.25-0.1 0.1-0.142 0.183-0.108 0.183s0.025 0.033-0.017 0.067c-0.117 0.083-0.592 0.725-0.542 0.725 0.025 0-0.042 0.092-0.142 0.208-0.108 0.108-0.192 0.25-0.192 0.308s-0.042 0.108-0.092 0.108c-0.042 0-0.133 0.125-0.2 0.283s-0.15 0.3-0.192 0.317c-0.033 0.008-0.217 0.25-0.392 0.525-0.183 0.275-0.367 0.525-0.417 0.558-0.042 0.033-0.050 0.067-0.017 0.067 0.042 0-0.158 0.292-0.433 0.642-0.55 0.725-0.675 1.033-0.483 1.233 0.108 0.1 0.508 0.125 2.675 0.117 1.4 0 2.575 0.017 2.617 0.033 0.033 0.025 0.050 0.325 0.033 0.675l-0.033 0.633-4.042-0.017-4.042-0.025v-0.508c0-0.5 0.125-0.783 0.6-1.35 0.050-0.050 0.067-0.1 0.042-0.1s-0.008-0.050 0.042-0.108c0.275-0.325 0.667-0.892 0.667-0.967 0-0.050 0.025-0.092 0.067-0.092 0.033 0 0.183-0.183 0.325-0.408 0.15-0.225 0.533-0.775 0.85-1.225 0.95-1.342 1.050-1.492 1.025-1.517-0.008-0.008 0.042-0.083 0.117-0.158 0.067-0.075 0.225-0.292 0.342-0.475 0.117-0.192 0.308-0.442 0.417-0.567 0.125-0.133 0.183-0.258 0.15-0.325-0.042-0.058-0.033-0.083 0.025-0.042 0.050 0.025 0.108-0.025 0.142-0.117 0.025-0.092 0.083-0.167 0.117-0.167 0.083 0 0.425-0.617 0.425-0.783 0-0.267-0.3-0.3-2.867-0.3h-2.55v-1.417h3.95c2.592 0 3.975 0.033 4.008 0.083z"></path>
<path d="M2.825 18.808c-0.108 0.133-0.1 0.142 0.033 0.033 0.075-0.058 0.142-0.125 0.142-0.142 0-0.067-0.067-0.025-0.175 0.108z"></path>
<path d="M41.858 23.208c0 0.067 0.033 0.1 0.075 0.075s0.050-0.083 0.025-0.125c-0.075-0.108-0.1-0.092-0.1 0.050z"></path>
<path d="M11.8 28.933c0.025 0.042 0.083 0.050 0.125 0.025 0.108-0.075 0.092-0.1-0.050-0.1-0.067 0-0.1 0.033-0.075 0.075z"></path>
</symbol>
</defs>
</svg>
